<?xml version="1.0" encoding="utf-8"?>
<!-- Generator: Adobe Illustrator 27.2.0, SVG Export Plug-In . SVG Version: 6.00 Build 0)  -->
<svg version="1.1" id="Figuras" xmlns="http://www.w3.org/2000/svg" xmlns:xlink="http://www.w3.org/1999/xlink" x="0px" y="0px"
	 viewBox="0 0 100 100" style="enable-background:new 0 0 100 100;" xml:space="preserve">
<style type="text/css">
	.st0{fill:#EDEDED;}
	.st1{fill:none;stroke:#C6C6C6;stroke-miterlimit:10;}
	.st2{fill:#EDEDED;stroke:#C6C6C6;stroke-miterlimit:10;}
	.st3{fill:#4E6166;}
	.st4{fill:#B2B2B2;}
</style>
<g>
	<g>
		<g>
			<path class="st0" d="M73.02,38.1v24.34c0,0.12-0.07,0.22-0.17,0.27L50.72,72.86c-0.2,0.09-0.43-0.05-0.43-0.27V48.25
				c0-0.12,0.07-2.56,0.17-2.61l22.12-7.81C72.79,37.73,73.02,37.88,73.02,38.1z"/>
			<path class="st1" d="M73.02,38.1v24.34c0,0.12-0.07,0.22-0.17,0.27L50.72,72.86c-0.2,0.09-0.43-0.05-0.43-0.27V48.25
				c0-0.12,0.07-2.56,0.17-2.61l22.12-7.81C72.79,37.73,73.02,37.88,73.02,38.1z"/>
		</g>
		<g>
			<path class="st0" d="M27.57,38.1v24.34c0,0.12,0.07,0.22,0.17,0.27l22.12,10.15c0.2,0.09,0.43-0.05,0.43-0.27V48.25
				c0-0.12-0.07-2.44-0.17-2.48L28,37.83C27.8,37.73,27.57,37.88,27.57,38.1z"/>
			<path class="st1" d="M27.57,38.1v24.34c0,0.12,0.07,0.22,0.17,0.27l22.12,10.15c0.2,0.09,0.43-0.05,0.43-0.27V48.25
				c0-0.12-0.07-2.44-0.17-2.48L28,37.83C27.8,37.73,27.57,37.88,27.57,38.1z"/>
		</g>
		<g>
			<path class="st0" d="M49.96,33.03l-22.24,4.59c-0.08,0.02-0.15,0.07-0.2,0.14l-4.25,7.18c-0.09,0.16-0.03,0.36,0.14,0.43
				l22.74,9.86c0.16,0.07,0.34-0.01,0.4-0.17l3.48-9.1c0.1-0.26,0.5-0.3,0.59-0.04l3.23,9.14c0.06,0.16,0.23,0.24,0.39,0.18
				l23.31-8.76c0.17-0.06,0.25-0.27,0.16-0.43l-4.59-8.3c-0.04-0.08-0.12-0.13-0.2-0.15"/>
			<path class="st1" d="M49.96,33.03l-22.24,4.59c-0.08,0.02-0.15,0.07-0.2,0.14l-4.25,7.18c-0.09,0.16-0.03,0.36,0.14,0.43
				l22.74,9.86c0.16,0.07,0.34-0.01,0.4-0.17l3.48-9.1c0.1-0.26,0.5-0.3,0.59-0.04l3.23,9.14c0.06,0.16,0.23,0.24,0.39,0.18
				l23.31-8.76c0.17-0.06,0.25-0.27,0.16-0.43l-4.59-8.3c-0.04-0.08-0.12-0.13-0.2-0.15"/>
		</g>
		<g>
			<path class="st0" d="M27.46,37.49l-5.65-7C21.67,30.3,21.77,30.03,22,30l23.46-3.66c0.11-0.02,0.23,0.03,0.29,0.13l4.28,6.16
				c0.12,0.18,0.02,0.42-0.19,0.47l-22.1,4.5C27.64,37.62,27.53,37.58,27.46,37.49z"/>
			<path class="st1" d="M27.46,37.49l-5.65-7C21.67,30.3,21.77,30.03,22,30l23.46-3.66c0.11-0.02,0.23,0.03,0.29,0.13l4.28,6.16
				c0.12,0.18,0.02,0.42-0.19,0.47l-22.1,4.5C27.64,37.62,27.53,37.58,27.46,37.49z"/>
		</g>
		<g>
			<path class="st0" d="M50.51,32.64l3.67-6.26c0.06-0.11,0.18-0.16,0.31-0.14L77.76,30c0.22,0.04,0.32,0.29,0.2,0.47l-4.83,7
				c-0.07,0.1-0.19,0.15-0.31,0.12l-22.12-4.51C50.51,33.04,50.41,32.82,50.51,32.64z"/>
			<path class="st1" d="M50.51,32.64l3.67-6.26c0.06-0.11,0.18-0.16,0.31-0.14L77.76,30c0.22,0.04,0.32,0.29,0.2,0.47l-4.83,7
				c-0.07,0.1-0.19,0.15-0.31,0.12l-22.12-4.51C50.51,33.04,50.41,32.82,50.51,32.64z"/>
		</g>
		<polyline class="st2" points="27.57,37.9 50,45.47 73.02,37.9 		"/>
	</g>
</g>
<g>
	<g>
		<path class="st3" d="M36.67,60.23c-0.06,0.7-0.35,1.22-1.15,1.47c-0.7,0.21-1.7,0.15-2.83-0.18c-0.04-0.01-0.08-0.03-0.1-0.04
			c-0.12-0.05-0.38-0.5-0.77-1.25c-0.38-0.75-0.55-1.15-0.55-1.27c0-0.04,0.03-0.06,0.1-0.04c0.65,0.14,1.19,0.27,1.44,0.29
			c0.56,0.04,0.85-0.11,0.86-0.48c0-0.24-0.18-0.58-0.56-1.03c-0.65-0.77-0.97-1.19-1.02-1.26c-0.35-0.53-0.51-1.01-0.51-1.49
			c0-0.69,0.38-1.15,1.33-1.29c0.78-0.11,1.87,0.02,2.97,0.34c0.06,0.02,0.11,0.04,0.14,0.05c0.08,0.03,0.14,0.12,0.18,0.26
			c0.11,0.41,0.39,1.18,0.71,2.14c0.01,0.03,0.01,0.05,0.01,0.07c-0.01,0.07-0.04,0.08-0.12,0.05c-0.03-0.02-0.09-0.05-0.17-0.1
			c-0.08-0.05-0.15-0.09-0.19-0.11c-0.33-0.16-0.67-0.24-0.96-0.24c-0.35-0.01-0.55,0.11-0.56,0.37c-0.01,0.23,0.19,0.6,0.55,1.1
			c0.63,0.88,0.86,1.29,0.89,1.33C36.63,59.43,36.7,59.85,36.67,60.23z"/>
		<path class="st3" d="M44.77,66.28c0.01,0.12-0.03,0.16-0.14,0.12c-0.07-0.03-0.25-0.15-0.66-0.43s-0.7-0.46-0.81-0.54
			c-1.1-0.13-2.31-0.5-2.93-0.75c-1-0.4-1.22-0.97-1.84-2.08c-0.62-1.1-0.95-2.17-0.87-3.24c0.08-1.1,0.51-1.92,1.1-2.57
			c0.6-0.67,0.92-1.07,2.39-0.44c0.71,0.3,1.34,0.71,1.87,1.2c0.58,0.53,0.98,1.1,1.25,1.69c0.06,0.12,0.08,0.2,0.08,0.24
			c0,0.13-0.15,0.36-0.52,0.63c-0.38,0.28-0.66,0.37-0.77,0.32c-0.03-0.01-0.13-0.13-0.29-0.36c-0.21-0.27-0.42-0.51-0.65-0.71
			c-0.33-0.3-0.71-0.54-1.11-0.7c-0.65-0.27-0.93-0.14-1.16,0.2c-0.21,0.31-0.33,0.75-0.33,1.31c-0.01,0.6,0.11,1.12,0.3,1.56
			c0.2,0.45,0.34,0.69,0.95,0.93c0.38,0.15,0.93,0.28,1.57,0.35c0-0.13-0.01-0.45-0.05-0.96c-0.02-0.39-0.03-0.71-0.01-0.94
			c0.01-0.07,0.04-0.1,0.1-0.09c0.02,0,0.06,0.01,0.11,0.04c0.14,0.06,0.34,0.15,0.61,0.28c0.27,0.13,0.46,0.22,0.59,0.28
			c0.14,0.06,0.34,0.13,0.59,0.22c0.24,0.08,0.4,0.14,0.49,0.17c0.08,0.03,0.11,0.1,0.11,0.23c0,0.18-0.01,0.44-0.02,0.79
			c-0.02,0.35-0.03,0.62-0.03,0.81c0,0.49,0.03,1.23,0.08,2.37C44.76,66.24,44.76,66.25,44.77,66.28z"/>
	</g>
</g>
<g>
	<g>
		<path class="st3" d="M62.76,59.59c0.07,1.07-0.18,2.12-0.9,3.35c-0.64,1.09-1.78,2.12-2.76,2.65c-0.19,0.1-0.67,0.35-1.44,0.7
			c-0.14,0.06-0.36,0.15-0.68,0.27c-0.32,0.12-0.59,0.21-0.77,0.28c-0.11,0.04-0.17,0.01-0.17-0.09c-0.02-0.49-0.02-1.22-0.01-2.16
			c0.01-0.94,0.01-1.62,0.01-2.07c-0.01-0.47-0.03-1.17-0.06-2.14c-0.03-0.97-0.04-1.74-0.04-2.26c0-0.1,0.04-0.17,0.12-0.22
			c0.2-0.11,0.53-0.24,1.03-0.41c0.94-0.32,1.66-0.57,2-0.65c0.88-0.22,1.73-0.29,2.21-0.06c0.45,0.22,0.77,0.64,1.03,1.18
			C62.56,58.47,62.72,59,62.76,59.59z M60.65,60.43c-0.01-0.65-0.25-1.09-0.66-1.35c-0.42-0.26-0.94-0.3-1.51-0.08
			c-0.52,0.2-0.75,0.37-0.75,0.54c0.01,0.25,0.01,0.61,0.02,1.1c0.01,0.48,0.02,0.84,0.02,1.08c0.01,0.23,0.02,0.58,0.04,1.05
			c0.02,0.47,0.04,0.83,0.05,1.07c0.01,0.18,0.24,0.17,0.75-0.07c0.55-0.26,1.05-0.74,1.45-1.38
			C60.44,61.78,60.66,61.12,60.65,60.43z"/>
		<path class="st3" d="M69.72,60.66c0,0.08-0.05,0.15-0.14,0.22c-0.11,0.08-0.45,0.23-0.88,0.4c-0.4,0.16-0.61,0.23-0.71,0.23
			c-0.08,0-0.14-0.07-0.18-0.23c-0.12-0.58-0.22-0.85-0.26-0.86c-0.04-0.01-0.32,0.09-1.13,0.44c-0.55,0.24-0.94,0.42-0.96,0.47
			c-0.04,0.08-0.06,0.3-0.08,0.7c-0.01,0.36-0.05,0.59-0.12,0.65c-0.08,0.07-0.38,0.22-1.04,0.52c-0.52,0.23-0.83,0.31-0.83,0.18
			c-0.01-0.11,0.36-1.71,0.76-4.08c0.44-2.57,0.59-4.35,0.63-4.7c0.02-0.2,0.07-0.32,0.13-0.35c0.11-0.05,0.27-0.11,0.49-0.18
			c0.21-0.07,0.36-0.13,0.46-0.18c0.09-0.04,0.23-0.12,0.4-0.22c0.17-0.1,0.3-0.17,0.39-0.21c0.06-0.03,0.13,0.02,0.2,0.15
			c0.21,0.41,0.8,1.7,1.6,3.69C69.26,59.29,69.72,60.55,69.72,60.66z M66.26,56.85c-0.05,0.2-0.12,0.6-0.24,1.19
			c-0.12,0.63-0.19,0.98-0.18,1.08c0.01,0.06,0.12,0.04,0.32-0.04c0.1-0.04,0.27-0.11,0.48-0.21c0.2-0.09,0.3-0.17,0.31-0.23
			c0-0.02,0-0.05,0-0.08c-0.01-0.12-0.1-0.41-0.29-0.87C66.49,57.24,66.35,56.96,66.26,56.85z"/>
	</g>
</g>
<polygon class="st4" points="50.21,37.8 37,40.5 50.21,45.07 63.49,40.5 "/>
</svg>
