<?xml version="1.0" encoding="utf-8"?>
<!-- Generator: Adobe Illustrator 27.2.0, SVG Export Plug-In . SVG Version: 6.00 Build 0)  -->
<svg version="1.1" id="Figuras" xmlns="http://www.w3.org/2000/svg" xmlns:xlink="http://www.w3.org/1999/xlink" x="0px" y="0px"
	 viewBox="0 0 100 100" style="enable-background:new 0 0 100 100;" xml:space="preserve">
<style type="text/css">
	.st0{fill:#EDEDED;}
	.st1{fill:none;stroke:#C6C6C6;stroke-miterlimit:10;}
	.st2{fill:#4E6166;}
</style>
<g>
	<path class="st0" d="M28.8,37.7c7-1.5,14-3.1,21-4.6c7.5,1.6,15.1,3.2,22.6,4.8c-7.5,2.7-14.9,5.3-22.4,8
		C43,43,35.9,40.4,28.8,37.7z"/>
	<g>
		<path class="st0" d="M73,38.1v24.3c0,0.1-0.1,0.2-0.2,0.3L50.7,72.9c-0.2,0.1-0.4-0.1-0.4-0.3V48.2c0-0.1,0.1-2.6,0.2-2.6
			l22.1-7.8C72.8,37.7,73,37.9,73,38.1z"/>
		<path class="st1" d="M73,38.1v24.3c0,0.1-0.1,0.2-0.2,0.3L50.7,72.9c-0.2,0.1-0.4-0.1-0.4-0.3V48.2c0-0.1,0.1-2.6,0.2-2.6
			l22.1-7.8C72.8,37.7,73,37.9,73,38.1z"/>
	</g>
	<g>
		<path class="st0" d="M27.6,38.1v24.3c0,0.1,0.1,0.2,0.2,0.3l22.1,10.2c0.2,0.1,0.4-0.1,0.4-0.3V48.2c0-0.1-0.1-2.4-0.2-2.5
			L28,37.8C27.8,37.7,27.6,37.9,27.6,38.1z"/>
		<path class="st1" d="M27.6,38.1v24.3c0,0.1,0.1,0.2,0.2,0.3l22.1,10.2c0.2,0.1,0.4-0.1,0.4-0.3V48.2c0-0.1-0.1-2.4-0.2-2.5
			L28,37.8C27.8,37.7,27.6,37.9,27.6,38.1z"/>
	</g>
	<g>
		<path class="st1" d="M54.2,55.2"/>
		<path class="st1" d="M50,46c0.1-0.3,0.5-0.3,0.6,0"/>
		<path class="st1" d="M50.2,33l-22.3,4.8"/>
	</g>
	<g>
		<path class="st1" d="M72.8,37.8L50,33"/>
	</g>
</g>
<g>
	<g>
		<path class="st2" d="M36.7,60.2c-0.1,0.7-0.3,1.2-1.2,1.5c-0.7,0.2-1.7,0.2-2.8-0.2c0,0-0.1,0-0.1,0c-0.1,0-0.4-0.5-0.8-1.2
			c-0.4-0.8-0.5-1.2-0.5-1.3c0,0,0-0.1,0.1,0c0.6,0.1,1.2,0.3,1.4,0.3c0.6,0,0.8-0.1,0.9-0.5c0-0.2-0.2-0.6-0.6-1
			c-0.7-0.8-1-1.2-1-1.3c-0.4-0.5-0.5-1-0.5-1.5c0-0.7,0.4-1.2,1.3-1.3c0.8-0.1,1.9,0,3,0.3c0.1,0,0.1,0,0.1,0
			c0.1,0,0.1,0.1,0.2,0.3c0.1,0.4,0.4,1.2,0.7,2.1c0,0,0,0,0,0.1c0,0.1,0,0.1-0.1,0c0,0-0.1,0-0.2-0.1c-0.1,0-0.2-0.1-0.2-0.1
			c-0.3-0.2-0.7-0.2-1-0.2c-0.3,0-0.5,0.1-0.6,0.4c0,0.2,0.2,0.6,0.5,1.1c0.6,0.9,0.9,1.3,0.9,1.3C36.6,59.4,36.7,59.8,36.7,60.2z"
			/>
		<path class="st2" d="M44.8,66.3c0,0.1,0,0.2-0.1,0.1c-0.1,0-0.2-0.2-0.7-0.4s-0.7-0.5-0.8-0.5c-1.1-0.1-2.3-0.5-2.9-0.8
			c-1-0.4-1.2-1-1.8-2.1c-0.6-1.1-1-2.2-0.9-3.2c0.1-1.1,0.5-1.9,1.1-2.6c0.6-0.7,0.9-1.1,2.4-0.4c0.7,0.3,1.3,0.7,1.9,1.2
			c0.6,0.5,1,1.1,1.2,1.7c0.1,0.1,0.1,0.2,0.1,0.2c0,0.1-0.2,0.4-0.5,0.6c-0.4,0.3-0.7,0.4-0.8,0.3c0,0-0.1-0.1-0.3-0.4
			c-0.2-0.3-0.4-0.5-0.7-0.7c-0.3-0.3-0.7-0.5-1.1-0.7c-0.7-0.3-0.9-0.1-1.2,0.2c-0.2,0.3-0.3,0.8-0.3,1.3c0,0.6,0.1,1.1,0.3,1.6
			c0.2,0.5,0.3,0.7,1,0.9c0.4,0.2,0.9,0.3,1.6,0.3c0-0.1,0-0.5,0-1c0-0.4,0-0.7,0-0.9c0-0.1,0-0.1,0.1-0.1c0,0,0.1,0,0.1,0
			c0.1,0.1,0.3,0.2,0.6,0.3c0.3,0.1,0.5,0.2,0.6,0.3c0.1,0.1,0.3,0.1,0.6,0.2c0.2,0.1,0.4,0.1,0.5,0.2c0.1,0,0.1,0.1,0.1,0.2
			c0,0.2,0,0.4,0,0.8c0,0.3,0,0.6,0,0.8C44.7,64.3,44.7,65.1,44.8,66.3C44.8,66.2,44.8,66.2,44.8,66.3z"/>
	</g>
</g>
<g>
	<g>
		<path class="st2" d="M62.8,59.6c0.1,1.1-0.2,2.1-0.9,3.3c-0.6,1.1-1.8,2.1-2.8,2.6c-0.2,0.1-0.7,0.3-1.4,0.7
			c-0.1,0.1-0.4,0.2-0.7,0.3c-0.3,0.1-0.6,0.2-0.8,0.3c-0.1,0-0.2,0-0.2-0.1c0-0.5,0-1.2,0-2.2c0-0.9,0-1.6,0-2.1
			c0-0.5,0-1.2-0.1-2.1c0-1,0-1.7,0-2.3c0-0.1,0-0.2,0.1-0.2c0.2-0.1,0.5-0.2,1-0.4c0.9-0.3,1.7-0.6,2-0.7c0.9-0.2,1.7-0.3,2.2-0.1
			c0.5,0.2,0.8,0.6,1,1.2C62.6,58.5,62.7,59,62.8,59.6z M60.7,60.4c0-0.7-0.2-1.1-0.7-1.3c-0.4-0.3-0.9-0.3-1.5-0.1
			c-0.5,0.2-0.8,0.4-0.8,0.5c0,0.2,0,0.6,0,1.1c0,0.5,0,0.8,0,1.1c0,0.2,0,0.6,0,1c0,0.5,0,0.8,0,1.1c0,0.2,0.2,0.2,0.8-0.1
			c0.5-0.3,1-0.7,1.5-1.4C60.4,61.8,60.7,61.1,60.7,60.4z"/>
		<path class="st2" d="M69.7,60.7c0,0.1-0.1,0.2-0.1,0.2c-0.1,0.1-0.4,0.2-0.9,0.4c-0.4,0.2-0.6,0.2-0.7,0.2c-0.1,0-0.1-0.1-0.2-0.2
			c-0.1-0.6-0.2-0.8-0.3-0.9c0,0-0.3,0.1-1.1,0.4c-0.6,0.2-0.9,0.4-1,0.5c0,0.1-0.1,0.3-0.1,0.7c0,0.4-0.1,0.6-0.1,0.7
			c-0.1,0.1-0.4,0.2-1,0.5c-0.5,0.2-0.8,0.3-0.8,0.2c0-0.1,0.4-1.7,0.8-4.1c0.4-2.6,0.6-4.3,0.6-4.7c0-0.2,0.1-0.3,0.1-0.3
			c0.1,0,0.3-0.1,0.5-0.2c0.2-0.1,0.4-0.1,0.5-0.2c0.1,0,0.2-0.1,0.4-0.2c0.2-0.1,0.3-0.2,0.4-0.2c0.1,0,0.1,0,0.2,0.2
			c0.2,0.4,0.8,1.7,1.6,3.7C69.3,59.3,69.7,60.5,69.7,60.7z M66.3,56.8C66.2,57,66.1,57.4,66,58c-0.1,0.6-0.2,1-0.2,1.1
			c0,0.1,0.1,0,0.3,0c0.1,0,0.3-0.1,0.5-0.2c0.2-0.1,0.3-0.2,0.3-0.2c0,0,0,0,0-0.1c0-0.1-0.1-0.4-0.3-0.9
			C66.5,57.2,66.3,57,66.3,56.8z"/>
	</g>
</g>
<path class="st1" d="M62.8,41.3L40,35.2"/>
</svg>
